<svg 
 xmlns="http://www.w3.org/2000/svg"
 xmlns:xlink="http://www.w3.org/1999/xlink"
 width="18px" height="18px">
<path fill-rule="evenodd"  fill="rgb(34, 34, 34)"
 d="M2.026,4.194 L16.745,4.194 L17.878,17.373 L0.894,17.373 L2.026,4.194 ZM6.555,4.194 C6.555,4.194 6.555,4.798 6.555,5.991 C6.555,6.983 6.205,7.788 5.423,7.788 C4.642,7.788 4.291,6.983 4.291,5.991 C4.291,4.998 4.291,4.194 4.291,4.194 M14.481,4.194 C14.481,4.194 14.481,4.798 14.481,5.991 C14.481,6.983 14.130,7.788 13.349,7.788 C12.567,7.788 12.216,6.983 12.216,5.991 C12.216,4.998 12.216,4.194 12.216,4.194 M4.857,5.392 C4.857,2.418 6.534,-0.000 9.386,-0.000 C12.229,-0.000 13.915,2.959 13.915,5.392 C13.915,6.561 12.782,6.561 12.782,5.392 C12.782,3.569 11.643,1.198 9.386,1.198 C7.108,1.198 5.989,3.565 5.989,5.392 C5.989,6.580 4.857,6.598 4.857,5.392 Z"/>
</svg>