<svg 
 xmlns="http://www.w3.org/2000/svg"
 xmlns:xlink="http://www.w3.org/1999/xlink"
 width="11px" height="18px">
<path fill-rule="evenodd"  fill="rgb(34, 34, 34)"
 d="M5.516,8.840 C7.755,8.840 9.569,6.861 9.569,4.418 C9.569,1.980 7.755,-0.001 5.516,-0.001 C3.277,-0.001 1.464,1.980 1.464,4.418 C1.464,6.861 3.277,8.840 5.516,8.840 ZM2.468,4.003 L8.564,4.003 C8.578,4.143 8.601,4.277 8.601,4.418 C8.601,6.278 7.219,7.785 5.516,7.785 C3.813,7.785 2.431,6.278 2.431,4.418 C2.432,4.277 2.454,4.143 2.468,4.003 ZM7.324,8.776 C7.096,9.648 6.366,10.293 5.489,10.293 C4.615,10.293 3.886,9.648 3.657,8.776 C1.529,9.568 -0.001,11.675 -0.001,14.180 L-0.001,17.374 L10.982,17.374 L10.982,14.180 C10.982,11.675 9.451,9.568 7.324,8.776 Z"/>
</svg>